# xmcd
#
# Track frame offsets:
#	150
#	11612
#	25110
#	48720
#	61972
#	75397
#	83590
#	99807
#	106615
#	115929
#	123310
#	134510
#	148770
#	160122
#	170415
#	183525
#	199780
#	215082
#	231765
#	246427
#	266935
#	282512
#	293027
#	317000
#	328020
#
# Disc length: 4577 seconds
#
# Revision: 0
# Processed by: cddbd v1.4PL0 Copyright (c) Steve Scherf et al.
# Submitted via: dBpowerAMP V4.0
#
DISCID=6911df19
DTITLE=Johnny Cash - The Beast In Me
DYEAR=1900
DGENRE=Country
TTITLE0=Ring of Fire
TTITLE1=Folsom Prison Blues
TTITLE2=Sunday Morning Coming Down
TTITLE3=Get Rhythm
TTITLE4=Restless
TTITLE5=Under the Double Eagle
TTITLE6=Ride the Train
TTITLE7=Pickin' Time
TTITLE8=Busted!
TTITLE9=Life's Evening Sun
TTITLE10=Hey Porter
TTITLE11=Ragged Old Flag
TTITLE12=You Win Again
TTITLE13=Big River
TTITLE14=I Still Miss Someone
TTITLE15=Call Me the Breeze
TTITLE16=Flat Top Box
TTITLE17=Ghost Riders In the Sky
TTITLE18=Jackson
TTITLE19=If I Was a Carpenter
TTITLE20=Jordan
TTITLE21=Wreck of Old '97
TTITLE22=Gospel Boogie
TTITLE23=Fourth Man
TTITLE24=I Walk the Line
EXTD=Recorded at Rocky Gap festival, Cumberland, MD 8-25-90
EXTT0=
EXTT1=
EXTT2=
EXTT3=
EXTT4=
EXTT5=
EXTT6=
EXTT7=
EXTT8=
EXTT9=
EXTT10=
EXTT11=
EXTT12=
EXTT13=
EXTT14=
EXTT15=
EXTT16=
EXTT17=
EXTT18=
EXTT19=
EXTT20=
EXTT21=
EXTT22=
EXTT23=
EXTT24=
PLAYORDER=
